<?xml version="1.0" encoding="utf-8"?>
<!-- Generator: Adobe Illustrator 27.3.1, SVG Export Plug-In . SVG Version: 6.00 Build 0)  -->
<svg version="1.1" id="Layer_1" xmlns="http://www.w3.org/2000/svg" xmlns:xlink="http://www.w3.org/1999/xlink" x="0px" y="0px"
	 viewBox="0 0 64 64" style="enable-background:new 0 0 64 64;" xml:space="preserve">
<style type="text/css">
	.st0{fill:#DAABB5;stroke:#F3EFEB;stroke-width:0.25;stroke-linecap:round;stroke-linejoin:round;stroke-miterlimit:10.6667;}
</style>
<g id="SVGRepo_bgCarrier">
</g>
<g id="SVGRepo_tracerCarrier">
</g>
<g>
	<g id="SVGRepo_iconCarrier">
		<path class="st0" d="M7.6,30l-1.5-2.9c-0.1-0.3-0.5-0.3-0.7,0L4,30l-3.3,0.5c-0.3,0-0.4,0.4-0.2,0.6l2.4,2.3l-0.6,3.3
			c0,0.3,0.3,0.5,0.5,0.4l2.9-1.5l2.9,1.5C9,37.2,9.3,37,9.3,36.7l-0.6-3.3l2.4-2.3c0.2-0.2,0.1-0.5-0.2-0.6L7.6,30z"/>
	</g>
	<g id="SVGRepo_iconCarrier_00000031895000089763051780000001617160459882092458_">
		<path class="st0" d="M20.7,30l-1.5-2.9c-0.1-0.3-0.5-0.3-0.7,0L17.1,30l-3.3,0.5c-0.3,0-0.4,0.4-0.2,0.6l2.4,2.3l-0.6,3.3
			c0,0.3,0.3,0.5,0.5,0.4l2.9-1.5l2.9,1.5c0.3,0.1,0.6-0.1,0.5-0.4l-0.6-3.3l2.4-2.3c0.2-0.2,0.1-0.5-0.2-0.6L20.7,30z"/>
	</g>
	<g id="SVGRepo_iconCarrier_00000060730835131597883160000006508401808096816787_">
		<path class="st0" d="M33.8,30l-1.5-2.9c-0.1-0.3-0.5-0.3-0.7,0L30.2,30l-3.3,0.5c-0.3,0-0.4,0.4-0.2,0.6l2.4,2.3l-0.6,3.3
			c0,0.3,0.3,0.5,0.5,0.4l2.9-1.5l2.9,1.5c0.3,0.1,0.6-0.1,0.5-0.4l-0.6-3.3l2.4-2.3c0.2-0.2,0.1-0.5-0.2-0.6L33.8,30z"/>
	</g>
	<g id="SVGRepo_iconCarrier_00000120556061443868743150000004885414941923289755_">
		<path class="st0" d="M46.9,30l-1.5-2.9c-0.1-0.3-0.5-0.3-0.7,0L43.3,30L40,30.5c-0.3,0-0.4,0.4-0.2,0.6l2.4,2.3l-0.6,3.3
			c0,0.3,0.3,0.5,0.5,0.4l2.9-1.5l2.9,1.5c0.3,0.1,0.6-0.1,0.5-0.4L48,33.4l2.4-2.3c0.2-0.2,0.1-0.5-0.2-0.6L46.9,30z"/>
	</g>
	<g id="SVGRepo_iconCarrier_00000081636563031501239140000006805634584589779105_">
		<path class="st0" d="M60,30l-1.5-2.9c-0.1-0.3-0.5-0.3-0.7,0L56.4,30l-3.3,0.5c-0.3,0-0.4,0.4-0.2,0.6l2.4,2.3l-0.6,3.3
			c0,0.3,0.3,0.5,0.5,0.4l2.9-1.5l2.9,1.5c0.3,0.1,0.6-0.1,0.5-0.4l-0.6-3.3l2.4-2.3c0.2-0.2,0.1-0.5-0.2-0.6L60,30z"/>
	</g>
</g>
</svg>
